<svg width="27" height="51" viewBox="0 0 27 51" fill="none" xmlns="http://www.w3.org/2000/svg">
<path d="M25.1823 49.5132C25.5424 49.0937 25.8258 48.5975 26.0162 48.0531C26.2065 47.5086 26.3002 46.9265 26.2918 46.34C26.2835 45.7536 26.1732 45.1744 25.9673 44.6356C25.7615 44.0968 25.4641 43.6089 25.0922 43.1999L9.52569 26.0459L24.5959 8.45441C25.3222 7.60667 25.7207 6.46528 25.7038 5.2813C25.6868 4.09733 25.2559 2.96777 24.5058 2.14112C23.7556 1.31447 22.7477 0.858443 21.7037 0.873354C20.6598 0.888264 19.6653 1.37289 18.939 2.22062L1.11109 23.0312C0.751013 23.4507 0.467673 23.9469 0.277291 24.4913C0.0869089 25.0358 -0.0067726 25.6179 0.00160281 26.2044C0.00997821 26.7908 0.120246 27.37 0.3261 27.9088C0.531955 28.4476 0.82935 28.9355 1.20126 29.3445L19.6163 49.6375C21.1408 51.3175 23.6676 51.2814 25.1823 49.5132Z" fill="white"/>
</svg>
