<svg width="26" height="50" viewBox="0 0 26 50" fill="none" xmlns="http://www.w3.org/2000/svg">
<path d="M1.1547 1.31546C0.788663 1.72973 0.498265 2.22181 0.300127 2.76352C0.101989 3.30524 0 3.88595 0 4.47242C0 5.0589 0.101989 5.63961 0.300127 6.18132C0.498265 6.72304 0.788663 7.21512 1.1547 7.62939L16.4746 25.0039L1.1547 42.3784C0.416428 43.2157 0.00167189 44.3513 0.00167189 45.5354C0.00167189 46.7195 0.416428 47.8551 1.1547 48.6923C1.89297 49.5296 2.89427 50 3.93834 50C4.98241 50 5.98372 49.5296 6.72199 48.6923L24.8453 28.1385C25.2113 27.7242 25.5017 27.2321 25.6999 26.6904C25.898 26.1487 26 25.568 26 24.9815C26 24.395 25.898 23.8143 25.6999 23.2726C25.5017 22.7309 25.2113 22.2388 24.8453 21.8245L6.72199 1.27068C5.22158 -0.43095 2.69459 -0.430949 1.1547 1.31546Z" fill="white"/>
</svg>
